<svg xmlns="http://www.w3.org/2000/svg" viewBox="0 0 320 320" role="img" aria-label="Mochi etapa 3">
  <rect width="320" height="320" rx="64" fill="#fff0f6"/>
  <path d="M54 132q8-94 88-52" fill="#fff6d8" stroke="#3c2f3d" stroke-width="8"/>
  <path d="M266 132q-8-94-88-52" fill="#fff6d8" stroke="#3c2f3d" stroke-width="8"/>
  <ellipse cx="160" cy="181" rx="121" ry="92" fill="#ffb3d1" stroke="#3c2f3d" stroke-width="9"/>
  <path d="M62 142q42-46 101-16q59-36 96 16" fill="none" stroke="#fff7cf" stroke-width="28" stroke-linecap="round"/>
  <path d="M116 167q14-12 28 0" fill="none" stroke="#3c2f3d" stroke-width="8" stroke-linecap="round"/>
  <path d="M176 167q14-12 28 0" fill="none" stroke="#3c2f3d" stroke-width="8" stroke-linecap="round"/>
  <path d="M137 203q23 22 46 0" fill="none" stroke="#3c2f3d" stroke-width="8" stroke-linecap="round"/>
  <circle cx="89" cy="202" r="18" fill="#ff7aa8" opacity=".78"/>
  <circle cx="231" cy="202" r="18" fill="#ff7aa8" opacity=".78"/>
  <path d="M160 48l11 22 24 4-18 17 4 25-21-12-21 12 4-25-18-17 24-4z" fill="#ffd166" stroke="#3c2f3d" stroke-width="6"/>
</svg>
